<svg height="1886" width="720" xmlns="http://www.w3.org/2000/svg">
<rect height="1886" fill="#555" width="720"></rect>
<text fill="#7f7" font-family="Courier New" font-size="12" xml:space="preserve">
<tspan x="10" y="26">2019-10-24 17:38:45 -0500</tspan>

<tspan x="10" y="42">local.jweValidate</tspan>

<tspan x="10" y="58"></tspan>

<tspan x="10" y="74">2019-10-24 17:33:05 -0500</tspan>

<tspan x="10" y="90">jwsDecode</tspan>

<tspan x="10" y="106"></tspan>

<tspan x="10" y="122">2019-10-24 17:18:01 -0500</tspan>

<tspan x="10" y="138">slushy</tspan>

<tspan x="10" y="154"></tspan>

<tspan x="10" y="170">2019-10-24 17:07:45 -0500</tspan>

<tspan x="10" y="186">- add function base64urlFromBuffer</tspan>

<tspan x="10" y="202"></tspan>

<tspan x="10" y="218">2019-10-24 17:06:32 -0500</tspan>

<tspan x="10" y="234">- add function base64urlFromBuffer</tspan>

<tspan x="10" y="250"></tspan>

<tspan x="10" y="266">2019-10-24 15:40:49 -0500</tspan>

<tspan x="10" y="282">cryptoKeyUnwrap256</tspan>

<tspan x="10" y="298"></tspan>

<tspan x="10" y="314">2019-10-24 15:37:33 -0500</tspan>

<tspan x="10" y="330">cryptoKeyWrap256</tspan>

<tspan x="10" y="346"></tspan>

<tspan x="10" y="362">2019-10-24 15:28:16 -0500</tspan>

<tspan x="10" y="378">inline.jweWrapKey</tspan>

<tspan x="10" y="394"></tspan>

<tspan x="10" y="410">2019-10-24 15:07:06 -0500</tspan>

<tspan x="10" y="426">sign.aad</tspan>

<tspan x="10" y="442"></tspan>

<tspan x="10" y="458">2019-10-24 15:03:04 -0500</tspan>

<tspan x="10" y="474">sign.aad</tspan>

<tspan x="10" y="490"></tspan>

<tspan x="10" y="506">2019-10-24 15:00:25 -0500</tspan>

<tspan x="10" y="522">sign</tspan>

<tspan x="10" y="538"></tspan>

<tspan x="10" y="554">2019-10-24 14:59:02 -0500</tspan>

<tspan x="10" y="570">slushy.sign</tspan>

<tspan x="10" y="586"></tspan>

<tspan x="10" y="602">2019-10-24 14:55:29 -0500</tspan>

<tspan x="10" y="618">revert</tspan>

<tspan x="10" y="634"></tspan>

<tspan x="10" y="650">2019-10-24 14:50:50 -0500</tspan>

<tspan x="10" y="666">slushy.sign</tspan>

<tspan x="10" y="682"></tspan>

<tspan x="10" y="698">2019-10-24 14:40:34 -0500</tspan>

<tspan x="10" y="714">cryptoEncryptAes128cbc</tspan>

<tspan x="10" y="730"></tspan>

<tspan x="10" y="746">2019-10-24 14:26:54 -0500</tspan>

<tspan x="10" y="762">add function cryptoHmacSha256</tspan>

<tspan x="10" y="778"></tspan>

<tspan x="10" y="794">2019-10-24 14:21:58 -0500</tspan>

<tspan x="10" y="810">add function cryptoHmacSha256</tspan>

<tspan x="10" y="826"></tspan>

<tspan x="10" y="842">2019-10-24 12:58:05 -0500</tspan>

<tspan x="10" y="858">base64urlToBuffer</tspan>

<tspan x="10" y="874"></tspan>

<tspan x="10" y="890">2019-10-24 12:56:40 -0500</tspan>

<tspan x="10" y="906">revert.importkey</tspan>

<tspan x="10" y="922"></tspan>

<tspan x="10" y="938">2019-10-24 12:50:33 -0500</tspan>

<tspan x="10" y="954">inline.importKey</tspan>

<tspan x="10" y="970"></tspan>

<tspan x="10" y="986">2019-10-24 11:40:12 -0500</tspan>

<tspan x="10" y="1002">invalid.tag</tspan>

<tspan x="10" y="1018"></tspan>

<tspan x="10" y="1034">2019-10-24 11:20:19 -0500</tspan>

<tspan x="10" y="1050">document</tspan>

<tspan x="10" y="1066"></tspan>

<tspan x="10" y="1082">2019-10-24 11:09:55 -0500</tspan>

<tspan x="10" y="1098">document</tspan>

<tspan x="10" y="1114"></tspan>

<tspan x="10" y="1130">2019-10-24 10:36:42 -0500</tspan>

<tspan x="10" y="1146">ciphertext</tspan>

<tspan x="10" y="1162"></tspan>

<tspan x="10" y="1178">2019-10-24 10:18:44 -0500</tspan>

<tspan x="10" y="1194">jweCompact</tspan>

<tspan x="10" y="1210"></tspan>

<tspan x="10" y="1226">2019-10-24 10:16:25 -0500</tspan>

<tspan x="10" y="1242">json.serialization</tspan>

<tspan x="10" y="1258"></tspan>

<tspan x="10" y="1274">2019-10-24 10:08:14 -0500</tspan>

<tspan x="10" y="1290">json.serialization</tspan>

<tspan x="10" y="1306"></tspan>

<tspan x="10" y="1322">2019-10-24 09:52:01 -0500</tspan>

<tspan x="10" y="1338">jweSignHmacSha256</tspan>

<tspan x="10" y="1354"></tspan>

<tspan x="10" y="1370">2019-10-24 09:41:18 -0500</tspan>

<tspan x="10" y="1386">test-coverage</tspan>

<tspan x="10" y="1402"></tspan>

<tspan x="10" y="1418">2019-10-24 09:38:26 -0500</tspan>

<tspan x="10" y="1434">fix.package.json</tspan>

<tspan x="10" y="1450"></tspan>

<tspan x="10" y="1466">2019-10-24 09:37:48 -0500</tspan>

<tspan x="10" y="1482">cull.bufferConcat</tspan>

<tspan x="10" y="1498"></tspan>

<tspan x="10" y="1514">2019-10-24 09:30:47 -0500</tspan>

<tspan x="10" y="1530">- rename lib jose_lite to jose</tspan>

<tspan x="10" y="1546"></tspan>

<tspan x="10" y="1562">2019-10-24 09:30:04 -0500</tspan>

<tspan x="10" y="1578">- rename lib jose_lite to jose</tspan>

<tspan x="10" y="1594"></tspan>

<tspan x="10" y="1610">2019-10-24 09:27:34 -0500</tspan>

<tspan x="10" y="1626">- rename file lib.jose_lite.js to lib.jose.js</tspan>

<tspan x="10" y="1642"></tspan>

<tspan x="10" y="1658">2019-10-24 09:25:09 -0500</tspan>

<tspan x="10" y="1674">- add function jweDecrypt, jweEncrypt, jweSign, jweWrapKey</tspan>

<tspan x="10" y="1690"></tspan>

<tspan x="10" y="1706">2019-10-22 15:24:52 +0000</tspan>

<tspan x="10" y="1722">[npm publish] - npm publish 2019.10.18</tspan>

<tspan x="10" y="1738"></tspan>

<tspan x="10" y="1754">2019-10-18 15:50:33 +0000</tspan>

<tspan x="10" y="1770">[ci skip] [npm published 2019.10.18]</tspan>

<tspan x="10" y="1786"></tspan>

<tspan x="10" y="1802">2019-10-18 15:41:45 +0000</tspan>

<tspan x="10" y="1818">[npm publishAfterCommitAfterBuild]</tspan>

<tspan x="10" y="1834"></tspan>

<tspan x="10" y="1850">2014-03-26 02:31:50 +0700</tspan>

<tspan x="10" y="1866">add blank README.md</tspan>

</text>
</svg>
