<svg height="3614" width="720" xmlns="http://www.w3.org/2000/svg">
<rect height="3614" fill="#555" width="720"></rect>
<text fill="#7f7" font-family="Courier New" font-size="12" xml:space="preserve">
<tspan x="10" y="26"></tspan>

<tspan x="10" y="42">\x1b[35m[MODE_BUILD=npmTestPublished]\x1b[0m - 2019-10-28T15:58:07.200Z - npm-testing /tmp/npmTe\</tspan>
<tspan x="10" y="58">stPublished/node_modules/jose-lite</tspan>

<tspan x="10" y="74"></tspan>

<tspan x="10" y="90"></tspan>

<tspan x="10" y="106">covering $ /home/travis/.nvm/versions/node/v13.0.1/bin/node /tmp/npmTestPublished/node_modules/j\</tspan>
<tspan x="10" y="122">ose-lite/test.js</tspan>

<tspan x="10" y="138">&gt; http-server listening on port 45443</tspan>

<tspan x="10" y="154">testRunDefault - 11 ms - [node test-case 1 of 9 passed] - testCase_buildApidoc_default</tspan>

<tspan x="10" y="170">testRunDefault - 52 ms - [node test-case 2 of 9 passed] - testCase_buildLib_default</tspan>

<tspan x="10" y="186">testRunDefault - 66 ms - [node test-case 3 of 9 passed] - testCase_buildReadme_default</tspan>

<tspan x="10" y="202">testRunDefault - 70 ms - [node test-case 4 of 9 passed] - testCase_buildTest_default</tspan>

<tspan x="10" y="218">testRunDefault - 79 ms - [node test-case 5 of 9 passed] - testCase_nop_default</tspan>

<tspan x="10" y="234">testRunDefault - 91 ms - [node test-case 6 of 9 passed] - testCase_jwsXxx_default</tspan>

<tspan x="10" y="250">testRunDefault - 100 ms - [node test-case 7 of 9 passed] - testCase_jweXxx_default</tspan>

<tspan x="10" y="266">jslint - 437ms /tmp/npmTestPublished/node_modules/jose-lite/README.md</tspan>

<tspan x="10" y="282">jslint - 211ms /tmp/npmTestPublished/node_modules/jose-lite/lib.jose.js</tspan>

<tspan x="10" y="298">jslint - 2ms /tmp/npmTestPublished/node_modules/jose-lite/npm_scripts.sh</tspan>

<tspan x="10" y="314">--- /tmp/npmTestPublished/node_modules/jose-lite/package.json.autofix.old	2019-10-28 15:58:08.41\</tspan>
<tspan x="10" y="330">1773999 +0000</tspan>

<tspan x="10" y="346">+++ /tmp/npmTestPublished/node_modules/jose-lite/package.json	2019-10-28 15:58:08.411773999 +000\</tspan>
<tspan x="10" y="362">0</tspan>

<tspan x="10" y="378">@@ -1,73 +1,73 @@</tspan>

<tspan x="10" y="394"> {</tspan>

<tspan x="10" y="410">-  "_from": "jose-lite",</tspan>

<tspan x="10" y="426">-  "_id": "jose-lite@2019.10.25",</tspan>

<tspan x="10" y="442">-  "_inBundle": false,</tspan>

<tspan x="10" y="458">-  "_integrity": "sha512-Ls6ykHqCEturQTtUeitab0w9fyWyWpV87nASztsB1v7inEErsOg2kNIX7DDN092IWTFsBtC\</tspan>
<tspan x="10" y="474">+UFuTlpHjR9lAZQ==",</tspan>

<tspan x="10" y="490">-  "_location": "/jose-lite",</tspan>

<tspan x="10" y="506">-  "_phantomChildren": {},</tspan>

<tspan x="10" y="522">-  "_requested": {</tspan>

<tspan x="10" y="538">-    "type": "tag",</tspan>

<tspan x="10" y="554">-    "registry": true,</tspan>

<tspan x="10" y="570">-    "raw": "jose-lite",</tspan>

<tspan x="10" y="586">+    "_from": "jose-lite",</tspan>

<tspan x="10" y="602">+    "_id": "jose-lite@2019.10.25",</tspan>

<tspan x="10" y="618">+    "_inBundle": false,</tspan>

<tspan x="10" y="634">+    "_integrity": "sha512-Ls6ykHqCEturQTtUeitab0w9fyWyWpV87nASztsB1v7inEErsOg2kNIX7DDN092IWTFsB\</tspan>
<tspan x="10" y="650">tC+UFuTlpHjR9lAZQ==",</tspan>

<tspan x="10" y="666">+    "_location": "/jose-lite",</tspan>

<tspan x="10" y="682">+    "_phantomChildren": {},</tspan>

<tspan x="10" y="698">+    "_requested": {</tspan>

<tspan x="10" y="714">+        "escapedName": "jose-lite",</tspan>

<tspan x="10" y="730">+        "fetchSpec": "latest",</tspan>

<tspan x="10" y="746">+        "name": "jose-lite",</tspan>

<tspan x="10" y="762">+        "raw": "jose-lite",</tspan>

<tspan x="10" y="778">+        "rawSpec": "",</tspan>

<tspan x="10" y="794">+        "registry": true,</tspan>

<tspan x="10" y="810">+        "saveSpec": null,</tspan>

<tspan x="10" y="826">+        "type": "tag"</tspan>

<tspan x="10" y="842">+    },</tspan>

<tspan x="10" y="858">+    "_requiredBy_": [</tspan>

<tspan x="10" y="874">+        "#USER",</tspan>

<tspan x="10" y="890">+        "/"</tspan>

<tspan x="10" y="906">+    ],</tspan>

<tspan x="10" y="922">+    "_resolved": "https://registry.npmjs.org/jose-lite/-/jose-lite-2019.10.25.tgz",</tspan>

<tspan x="10" y="938">+    "_shasum": "1dd056a60c51f9878c5446fec9e79bd4a28a83f1",</tspan>

<tspan x="10" y="954">+    "_spec": "jose-lite",</tspan>

<tspan x="10" y="970">+    "_where": "/tmp/npmTestPublished",</tspan>

<tspan x="10" y="986">+    "author": {</tspan>

<tspan x="10" y="1002">+        "email": "kaizhu256@gmail.com",</tspan>

<tspan x="10" y="1018">+        "name": "kai zhu"</tspan>

<tspan x="10" y="1034">+    },</tspan>

<tspan x="10" y="1050">+    "bugs": {</tspan>

<tspan x="10" y="1066">+        "url": "https://github.com/kaizhu256/node-jose-lite/issues"</tspan>

<tspan x="10" y="1082">+    },</tspan>

<tspan x="10" y="1098">+    "bundleDependencies": false,</tspan>

<tspan x="10" y="1114">+    "deprecated": false,</tspan>

<tspan x="10" y="1130">+    "description": "this zero-dependency package will provide a standalone solution to encrypt/\</tspan>
<tspan x="10" y="1146">decrypt json-web-tokens in both browser/node",</tspan>

<tspan x="10" y="1162">+    "devDependencies": {</tspan>

<tspan x="10" y="1178">+        "utility2": "github:kaizhu256/node-utility2#alpha"</tspan>

<tspan x="10" y="1194">+    },</tspan>

<tspan x="10" y="1210">+    "engines": {</tspan>

<tspan x="10" y="1226">+        "node": "&gt;=10.0"</tspan>

<tspan x="10" y="1242">+    },</tspan>

<tspan x="10" y="1258">+    "homepage": "https://github.com/kaizhu256/node-jose-lite",</tspan>

<tspan x="10" y="1274">+    "keywords": [</tspan>

<tspan x="10" y="1290">+        "jwe",</tspan>

<tspan x="10" y="1306">+        "jws",</tspan>

<tspan x="10" y="1322">+        "jwt"</tspan>

<tspan x="10" y="1338">+    ],</tspan>

<tspan x="10" y="1354">+    "license": "MIT",</tspan>

<tspan x="10" y="1370">+    "main": "lib.jose.js",</tspan>

<tspan x="10" y="1386">     "name": "jose-lite",</tspan>

<tspan x="10" y="1402">-    "escapedName": "jose-lite",</tspan>

<tspan x="10" y="1418">-    "rawSpec": "",</tspan>

<tspan x="10" y="1434">-    "saveSpec": null,</tspan>

<tspan x="10" y="1450">-    "fetchSpec": "latest"</tspan>

<tspan x="10" y="1466">-  },</tspan>

<tspan x="10" y="1482">-  "_requiredBy_": [</tspan>

<tspan x="10" y="1498">-    "#USER",</tspan>

<tspan x="10" y="1514">-    "/"</tspan>

<tspan x="10" y="1530">-  ],</tspan>

<tspan x="10" y="1546">-  "_resolved": "https://registry.npmjs.org/jose-lite/-/jose-lite-2019.10.25.tgz",</tspan>

<tspan x="10" y="1562">-  "_shasum": "1dd056a60c51f9878c5446fec9e79bd4a28a83f1",</tspan>

<tspan x="10" y="1578">-  "_spec": "jose-lite",</tspan>

<tspan x="10" y="1594">-  "_where": "/tmp/npmTestPublished",</tspan>

<tspan x="10" y="1610">-  "author": {</tspan>

<tspan x="10" y="1626">-    "name": "kai zhu",</tspan>

<tspan x="10" y="1642">-    "email": "kaizhu256@gmail.com"</tspan>

<tspan x="10" y="1658">-  },</tspan>

<tspan x="10" y="1674">-  "bugs": {</tspan>

<tspan x="10" y="1690">-    "url": "https://github.com/kaizhu256/node-jose-lite/issues"</tspan>

<tspan x="10" y="1706">-  },</tspan>

<tspan x="10" y="1722">-  "bundleDependencies": false,</tspan>

<tspan x="10" y="1738">-  "deprecated": false,</tspan>

<tspan x="10" y="1754">-  "description": "this zero-dependency package will provide a standalone solution to encrypt/de\</tspan>
<tspan x="10" y="1770">crypt json-web-tokens in both browser/node",</tspan>

<tspan x="10" y="1786">-  "devDependencies": {</tspan>

<tspan x="10" y="1802">-    "utility2": "github:kaizhu256/node-utility2#alpha"</tspan>

<tspan x="10" y="1818">-  },</tspan>

<tspan x="10" y="1834">-  "engines": {</tspan>

<tspan x="10" y="1850">-    "node": "&gt;=10.0"</tspan>

<tspan x="10" y="1866">-  },</tspan>

<tspan x="10" y="1882">-  "homepage": "https://github.com/kaizhu256/node-jose-lite",</tspan>

<tspan x="10" y="1898">-  "keywords": [</tspan>

<tspan x="10" y="1914">-    "jwe",</tspan>

<tspan x="10" y="1930">-    "jws",</tspan>

<tspan x="10" y="1946">-    "jwt"</tspan>

<tspan x="10" y="1962">-  ],</tspan>

<tspan x="10" y="1978">-  "license": "MIT",</tspan>

<tspan x="10" y="1994">-  "main": "lib.jose.js",</tspan>

<tspan x="10" y="2010">-  "name": "jose-lite",</tspan>

<tspan x="10" y="2026">-  "nameAliasPublish": "",</tspan>

<tspan x="10" y="2042">-  "nameLib": "jose",</tspan>

<tspan x="10" y="2058">-  "nameOriginal": "jose-lite",</tspan>

<tspan x="10" y="2074">-  "os": [</tspan>

<tspan x="10" y="2090">-    "darwin",</tspan>

<tspan x="10" y="2106">-    "linux"</tspan>

<tspan x="10" y="2122">-  ],</tspan>

<tspan x="10" y="2138">-  "repository": {</tspan>

<tspan x="10" y="2154">-    "type": "git",</tspan>

<tspan x="10" y="2170">-    "url": "git+https://github.com/kaizhu256/node-jose-lite.git"</tspan>

<tspan x="10" y="2186">-  },</tspan>

<tspan x="10" y="2202">-  "scripts": {</tspan>

<tspan x="10" y="2218">-    "build-ci": "./npm_scripts.sh",</tspan>

<tspan x="10" y="2234">-    "env": "env",</tspan>

<tspan x="10" y="2250">-    "eval": "./npm_scripts.sh",</tspan>

<tspan x="10" y="2266">-    "heroku-postbuild": "./npm_scripts.sh",</tspan>

<tspan x="10" y="2282">-    "postinstall": "./npm_scripts.sh",</tspan>

<tspan x="10" y="2298">-    "start": "./npm_scripts.sh",</tspan>

<tspan x="10" y="2314">-    "test": "./npm_scripts.sh",</tspan>

<tspan x="10" y="2330">-    "utility2": "./npm_scripts.sh"</tspan>

<tspan x="10" y="2346">-  },</tspan>

<tspan x="10" y="2362">-  "version": "2019.10.25"</tspan>

<tspan x="10" y="2378">+    "nameAliasPublish": "",</tspan>

<tspan x="10" y="2394">+    "nameLib": "jose",</tspan>

<tspan x="10" y="2410">+    "nameOriginal": "jose-lite",</tspan>

<tspan x="10" y="2426">+    "os": [</tspan>

<tspan x="10" y="2442">+        "darwin",</tspan>

<tspan x="10" y="2458">+        "linux"</tspan>

<tspan x="10" y="2474">+    ],</tspan>

<tspan x="10" y="2490">+    "repository": {</tspan>

<tspan x="10" y="2506">+        "type": "git",</tspan>

<tspan x="10" y="2522">+        "url": "git+https://github.com/kaizhu256/node-jose-lite.git"</tspan>

<tspan x="10" y="2538">+    },</tspan>

<tspan x="10" y="2554">+    "scripts": {</tspan>

<tspan x="10" y="2570">+        "build-ci": "./npm_scripts.sh",</tspan>

<tspan x="10" y="2586">+        "env": "env",</tspan>

<tspan x="10" y="2602">+        "eval": "./npm_scripts.sh",</tspan>

<tspan x="10" y="2618">+        "heroku-postbuild": "./npm_scripts.sh",</tspan>

<tspan x="10" y="2634">+        "postinstall": "./npm_scripts.sh",</tspan>

<tspan x="10" y="2650">+        "start": "./npm_scripts.sh",</tspan>

<tspan x="10" y="2666">+        "test": "./npm_scripts.sh",</tspan>

<tspan x="10" y="2682">+        "utility2": "./npm_scripts.sh"</tspan>

<tspan x="10" y="2698">+    },</tspan>

<tspan x="10" y="2714">+    "version": "2019.10.25"</tspan>

<tspan x="10" y="2730"> }</tspan>

<tspan x="10" y="2746">jslint-autofix - modified and saved file /tmp/npmTestPublished/node_modules/jose-lite/package.js\</tspan>
<tspan x="10" y="2762">on</tspan>

<tspan x="10" y="2778">jslint - 38ms /tmp/npmTestPublished/node_modules/jose-lite/package.json</tspan>

<tspan x="10" y="2794">jslint - 172ms /tmp/npmTestPublished/node_modules/jose-lite/test.js</tspan>

<tspan x="10" y="2810"></tspan>

<tspan x="10" y="2826">DevTools listening on ws://127.0.0.1:46109/devtools/browser/48a03015-e622-4a34-be2d-d777ac08ba22</tspan>

<tspan x="10" y="2842">[1028/155808.992861:ERROR:command_buffer_proxy_impl.cc(124)] ContextResult::kTransientFailure: F\</tspan>
<tspan x="10" y="2858">ailed to send GpuChannelMsg_CreateCommandBuffer.</tspan>

<tspan x="10" y="2874">[1028/155808.992824:WARNING:ipc_message_attachment_set.cc(49)] MessageAttachmentSet destroyed wi\</tspan>
<tspan x="10" y="2890">th unconsumed attachments: 0/1</tspan>

<tspan x="10" y="2906">[1028/155809.006962:ERROR:command_buffer_proxy_impl.cc(124)] ContextResult::kTransientFailure: F\</tspan>
<tspan x="10" y="2922">ailed to send GpuChannelMsg_CreateCommandBuffer.</tspan>

<tspan x="10" y="2938">[1028/155809.006922:WARNING:ipc_message_attachment_set.cc(49)] MessageAttachmentSet destroyed wi\</tspan>
<tspan x="10" y="2954">th unconsumed attachments: 0/1</tspan>

<tspan x="10" y="2970">http-server listening on port 45110</tspan>

<tspan x="10" y="2986">[1028/155809.443807:INFO:CONSOLE(528)] "testRunDefault - 9 ms - [browser test-case 1 of 3 passed\</tspan>
<tspan x="10" y="3002">] - testCase_nop_default", source: http://127.0.0.1:45443/assets.example.js (528)</tspan>

<tspan x="10" y="3018">[1028/155809.461630:INFO:CONSOLE(528)] "testRunDefault - 27 ms - [browser test-case 2 of 3 passe\</tspan>
<tspan x="10" y="3034">d] - testCase_jwsXxx_default", source: http://127.0.0.1:45443/assets.example.js (528)</tspan>

<tspan x="10" y="3050">[1028/155809.470708:INFO:CONSOLE(528)] "testRunDefault - 36 ms - [browser test-case 3 of 3 passe\</tspan>
<tspan x="10" y="3066">d] - testCase_jweXxx_default", source: http://127.0.0.1:45443/assets.example.js (528)</tspan>

<tspan x="10" y="3082">[1028/155809.529995:INFO:CONSOLE(528)] "domOnEventWindowOnloadTimeElapsed = 319", source: http:/\</tspan>
<tspan x="10" y="3098">/127.0.0.1:45443/assets.example.js (528)</tspan>

<tspan x="10" y="3114">testRunDefault - 1671 ms - [node test-case 8 of 9 passed] - testCase_webpage_default</tspan>

<tspan x="10" y="3130">testRunDefault - 5858 ms - [node test-case 9 of 9 passed] - testCase_buildApp_default</tspan>

<tspan x="10" y="3146">------------------|-----------|-----------|-----------|-----------|</tspan>

<tspan x="10" y="3162">File              |   % Stmts |% Branches |   % Funcs |   % Lines |</tspan>

<tspan x="10" y="3178">------------------|-----------|-----------|-----------|-----------|</tspan>

<tspan x="10" y="3194">   jose-lite/     |      99.4 |      96.5 |     98.59 |      99.4 |</tspan>

<tspan x="10" y="3210">      lib.jose.js |     99.12 |     94.76 |     97.78 |     99.12 |</tspan>

<tspan x="10" y="3226">      test.js     |       100 |       100 |       100 |       100 |</tspan>

<tspan x="10" y="3242">------------------|-----------|-----------|-----------|-----------|</tspan>

<tspan x="10" y="3258">All files         |      99.4 |      96.5 |     98.59 |      99.4 |</tspan>

<tspan x="10" y="3274">------------------|-----------|-----------|-----------|-----------|</tspan>

<tspan x="10" y="3290"></tspan>

<tspan x="10" y="3306">created coverage file /tmp/npmTestPublished/node_modules/jose-lite/tmp/build/coverage.html/index\</tspan>
<tspan x="10" y="3322">.html</tspan>

<tspan x="10" y="3338"></tspan>

<tspan x="10" y="3354">-------------------------------------------------------</tspan>

<tspan x="10" y="3370">| test-report - npmTestPublished - browser - / - Mozilla/5.0 (X11; Linux x86_64) AppleWebKit/537\</tspan>
<tspan x="10" y="3386">.36 (KHTML, like Gecko) HeadlessChrome/78.0.3904.70 Safari/537.36 - 2019-10-28T15:58:09.332Z</tspan>

<tspan x="10" y="3402">|      37 ms            0 failed        3 passed      |</tspan>

<tspan x="10" y="3418">-------------------------------------------------------</tspan>

<tspan x="10" y="3434">| test-report - npmTestPublished - node - linux v13.0.1 - 2019-10-28T15:58:07.417Z</tspan>

<tspan x="10" y="3450">|    5859 ms            0 failed        9 passed      |</tspan>

<tspan x="10" y="3466">-------------------------------------------------------</tspan>

<tspan x="10" y="3482"></tspan>

<tspan x="10" y="3498">created test-report file /tmp/npmTestPublished/node_modules/jose-lite/tmp/build/test-report.html</tspan>

<tspan x="10" y="3514"></tspan>

<tspan x="10" y="3530"></tspan>

<tspan x="10" y="3546">npmTestPublished - 0 failed tests</tspan>

<tspan x="10" y="3562"></tspan>

<tspan x="10" y="3578"></tspan>

<tspan x="10" y="3594">\x1b[35m[MODE_BUILD=npmTestPublished]\x1b[0m - 2019-10-28T15:58:14.075Z - EXIT_CODE - 0</tspan>

</text>
</svg>
